<svg xmlns="http://www.w3.org/2000/svg" width="143.75" height="18" viewBox="0 0 143.75 18"><defs><style>.a{fill:#fff;}</style></defs><path class="a" d="M441.835,87.057a7.584,7.584,0,0,0,3.373,6.484c2.2,1.59,5.281,2.251,8.947,2.251V92.88a7.648,7.648,0,0,1-4.988-1.587,5.954,5.954,0,0,1-.145-8.869,8.54,8.54,0,0,1,5.133-1.457V77.923a23.466,23.466,0,0,0-5.574.663,14.306,14.306,0,0,0-3.228,1.587,9.288,9.288,0,0,0-2.346,2.383,7.232,7.232,0,0,0-1.172,4.5m123.508,8.469V78.188h4.989l10.412,11.649V78.188h4.841V95.526H580.3l-10.12-11.248V95.526Zm-23.763,0V78.188h18.775v3.045H546.711v3.838h12.764v2.911H546.711v4.633h14.231v2.911Zm-21.562,0V78.453h5.133V92.614h12.762v2.911Zm-25.816,0V78.188h5.133V86l10.415-7.81h6.894l-9.534,6.75,9.972,10.588h-6.453l-7.186-8.07-4.109,2.911v5.159Zm-25.083-5.689,5.134-.267a3.8,3.8,0,0,0,1.761,2.518,7.374,7.374,0,0,0,3.665.794,9.672,9.672,0,0,0,3.816-.661,2.235,2.235,0,0,0,1.171-1.723,1.324,1.324,0,0,0-.585-1.059,3.53,3.53,0,0,0-1.76-.662,30.98,30.98,0,0,0-4.109-.794,20.782,20.782,0,0,1-5.866-1.719A3.974,3.974,0,0,1,470,82.82a3.684,3.684,0,0,1,1.172-2.514,6.633,6.633,0,0,1,3.082-1.72,18.937,18.937,0,0,1,5.133-.663,14.935,14.935,0,0,1,7.189,1.457,4.39,4.39,0,0,1,2.492,3.839l-5.133.132a2.3,2.3,0,0,0-1.466-1.853c-.587-.53-1.76-.663-3.226-.663a6.843,6.843,0,0,0-3.521.663,1.174,1.174,0,0,0-.735,1.059,1.077,1.077,0,0,0,.735,1.055c.587.4,2.2.665,4.693,1.192A38.26,38.26,0,0,1,485.986,86a7.944,7.944,0,0,1,2.788,1.72A3.906,3.906,0,0,1,489.8,90.5a4.316,4.316,0,0,1-1.175,2.781,7.6,7.6,0,0,1-3.374,1.982,21.672,21.672,0,0,1-5.574.663c-3.373,0-5.721-.53-7.479-1.589a6.429,6.429,0,0,1-3.081-4.5M454.155,77.923a15.5,15.5,0,0,1,8.947,2.383,7.658,7.658,0,0,1,3.373,6.617,7.991,7.991,0,0,1-3.373,6.617c-2.2,1.59-5.133,2.251-8.947,2.251V92.88a7.369,7.369,0,0,0,4.986-1.587,5.18,5.18,0,0,0,1.908-4.5,5.329,5.329,0,0,0-1.908-4.5,8.677,8.677,0,0,0-4.986-1.325Z" transform="translate(-441.835 -77.923)"/></svg>